<svg version="1.1" id="Layer_1" xmlns="http://www.w3.org/2000/svg" xmlns:xlink="http://www.w3.org/1999/xlink" x="0px" y="0px"
	 width="100%" viewBox="0 0 480 480" enable-background="new 0 0 480 480" xml:space="preserve">
<path fill="#D6D6D1" opacity="1.000000" stroke="none" 
	d="
M209.000000,1.000000 
	C229.687561,1.000000 250.375122,1.000000 271.196564,1.339257 
	C274.587646,2.451300 277.853302,3.190204 281.100555,4.002726 
	C295.130371,7.513258 309.479309,10.104766 323.100250,14.804168 
	C340.709534,20.879599 357.651886,28.904375 372.764801,40.044559 
	C384.726715,48.862064 396.473724,58.011631 407.841553,67.577690 
	C413.608398,72.430527 418.527954,78.356880 423.462097,84.113701 
	C428.295410,89.752907 432.915436,95.615341 437.166504,101.702843 
	C442.305847,109.062347 447.443390,116.500404 451.691345,124.384193 
	C456.298035,132.933701 459.880066,142.035309 463.478729,150.896973 
	C434.660797,150.583878 406.273041,150.269989 377.616638,149.765594 
	C372.482819,143.489960 368.029602,137.011826 362.672485,131.395966 
	C348.569427,116.611816 331.826813,105.168877 314.382446,94.715263 
	C300.977356,86.682152 287.905701,77.998146 274.044708,70.846024 
	C259.437225,63.308723 244.070953,57.241356 229.032104,50.540939 
	C207.145050,40.789375 184.629471,33.429474 160.309906,34.045559 
	C129.576401,34.824135 105.687836,48.900356 90.366386,74.929398 
	C77.401726,96.954605 73.614578,122.372047 69.447800,147.381653 
	C52.653748,147.217178 36.318470,147.106934 20.009153,146.611618 
	C21.674809,142.608124 23.272652,138.970032 24.961372,135.374634 
	C32.652370,119.000000 42.225182,103.756187 53.744167,89.856445 
	C61.242046,80.808899 68.925652,71.706062 77.721481,63.990868 
	C91.997246,51.468998 107.021942,39.887196 123.979637,30.815563 
	C141.185135,21.611366 158.883331,13.944928 177.718948,9.069937 
	C187.526627,6.531538 197.594955,5.005456 207.521790,2.909545 
	C208.122162,2.782788 208.512131,1.659563 209.000000,1.000000 
z"/>
<path fill="#000000" opacity="1.000000" stroke="none" 
	d="
M208.531342,1.000000 
	C208.512131,1.659563 208.122162,2.782788 207.521790,2.909545 
	C197.594955,5.005456 187.526627,6.531538 177.718948,9.069937 
	C158.883331,13.944928 141.185135,21.611366 123.979637,30.815563 
	C107.021942,39.887196 91.997246,51.468998 77.721481,63.990868 
	C68.925652,71.706062 61.242046,80.808899 53.744167,89.856445 
	C42.225182,103.756187 32.652370,119.000000 24.961372,135.374634 
	C23.272652,138.970032 21.674809,142.608124 19.689373,146.789978 
	C18.563240,149.853745 17.782852,152.354095 16.660053,155.020676 
	C13.548274,163.791183 10.778906,172.395432 7.928152,181.387497 
	C7.562429,184.872742 7.278090,187.970169 6.567067,191.028412 
	C5.092338,196.189468 4.122031,201.407486 2.939177,206.576874 
	C2.658920,207.801697 1.665415,208.863312 0.999999,210.000000 
	C1.000000,140.406464 1.000000,70.812943 1.000000,1.000000 
	C70.020737,1.000000 139.041718,1.000000 208.531342,1.000000 
z"/>
<path fill="#000000" opacity="1.000000" stroke="none" 
	d="
M209.000000,481.000000 
	C139.739471,481.000000 70.478935,481.000000 1.000000,481.000000 
	C1.000000,411.645935 1.000000,342.291626 1.322259,272.129211 
	C2.430333,273.900146 3.216148,276.479218 3.948854,279.475983 
	C4.627304,283.629913 5.358862,287.366180 6.060249,291.511963 
	C7.018244,295.975800 7.731426,300.121887 9.047881,304.066650 
	C12.527816,314.494354 16.269100,324.834839 19.894629,335.568298 
	C23.125040,342.593689 26.367184,349.260834 29.829681,356.229919 
	C33.367264,362.039276 36.219082,367.901520 40.094185,372.983521 
	C49.487926,385.302979 59.358120,397.259186 69.135803,409.666809 
	C79.119919,418.310120 89.004547,426.648438 99.034813,435.315002 
	C104.103188,438.900421 108.829231,442.517151 113.989380,445.340454 
	C124.940529,451.332153 135.889923,457.421204 147.272812,462.500458 
	C156.747406,466.728210 166.679825,470.166687 176.703339,472.861786 
	C186.959869,475.619537 197.578064,477.027069 208.017075,479.129150 
	C208.452652,479.216827 208.677155,480.352539 209.000000,481.000000 
z"/>
<path fill="#000000" opacity="1.000000" stroke="none" 
	d="
M463.908905,150.896164 
	C459.880066,142.035309 456.298035,132.933701 451.691345,124.384193 
	C447.443390,116.500404 442.305847,109.062347 437.166504,101.702843 
	C432.915436,95.615341 428.295410,89.752907 423.462097,84.113701 
	C418.527954,78.356880 413.608398,72.430527 407.841553,67.577690 
	C396.473724,58.011631 384.726715,48.862064 372.764801,40.044559 
	C357.651886,28.904375 340.709534,20.879599 323.100250,14.804168 
	C309.479309,10.104766 295.130371,7.513258 281.100555,4.002726 
	C277.853302,3.190204 274.587646,2.451300 271.665222,1.339257 
	C341.593506,1.000000 411.187042,1.000000 481.000000,1.000000 
	C481.000000,70.020737 481.000000,139.041718 480.653656,208.840179 
	C479.873169,208.478439 479.307220,207.370255 479.029999,206.194031 
	C478.245636,202.865494 477.579498,199.509094 476.962036,195.754791 
	C476.358246,192.217789 475.659149,189.089645 474.973816,185.553329 
	C472.301453,176.455093 469.615295,167.765030 466.909912,158.711975 
	C465.896759,155.864700 464.902832,153.380432 463.908905,150.896164 
z"/>
<path fill="#000000" opacity="1.000000" stroke="none" 
	d="
M481.000000,273.000000 
	C481.000000,342.260345 481.000000,411.520721 481.000000,481.000000 
	C411.979248,481.000000 342.958282,481.000000 273.158936,480.652161 
	C273.387604,479.870758 274.355957,479.252075 275.407654,479.032288 
	C285.966705,476.825409 296.775238,475.456512 307.046570,472.321716 
	C318.929840,468.694946 330.691498,464.249481 341.869934,458.844116 
	C354.710510,452.635040 366.854095,444.984558 379.607056,437.855713 
	C383.647736,434.866791 387.504150,432.125671 391.088409,429.065735 
	C397.142181,423.897491 403.023682,418.527374 409.283875,413.082214 
	C425.377686,397.083649 439.147949,379.705383 450.118805,359.751984 
	C453.530701,353.010529 456.764008,346.571320 460.361267,340.008881 
	C464.495636,329.264038 468.369171,318.677307 471.982056,308.002380 
	C473.296112,304.119781 473.988647,300.026855 475.155090,295.687439 
	C476.211731,290.210022 477.078094,285.075134 478.124939,279.578766 
	C478.539917,277.729797 478.597992,276.181396 479.081604,274.779877 
	C479.332550,274.052521 480.336304,273.584930 481.000000,273.000000 
z"/>
<path fill="#D5D5D0" opacity="1.000000" stroke="none" 
	d="
M379.300446,437.960205 
	C366.854095,444.984558 354.710510,452.635040 341.869934,458.844116 
	C330.691498,464.249481 318.929840,468.694946 307.046570,472.321716 
	C296.775238,475.456512 285.966705,476.825409 275.407654,479.032288 
	C274.355957,479.252075 273.387604,479.870758 272.690308,480.652161 
	C251.979111,481.000000 230.958206,481.000000 209.468658,481.000000 
	C208.677155,480.352539 208.452652,479.216827 208.017075,479.129150 
	C197.578064,477.027069 186.959869,475.619537 176.703339,472.861786 
	C166.679825,470.166687 156.747406,466.728210 147.272812,462.500458 
	C135.889923,457.421204 124.940529,451.332153 113.989380,445.340454 
	C108.829231,442.517151 104.103188,438.900421 99.503983,435.228088 
	C163.881851,435.482574 227.936417,436.129456 291.990387,436.831970 
	C321.094360,437.151184 350.197144,437.580719 379.300446,437.960205 
z"/>
<path fill="#D5D5D0" opacity="1.000000" stroke="none" 
	d="
M481.000000,272.531342 
	C480.336304,273.584930 479.332550,274.052521 479.081604,274.779877 
	C478.597992,276.181396 478.539917,277.729797 477.664246,279.645660 
	C473.358002,280.034424 469.692932,279.993378 466.027893,279.955475 
	C424.711182,279.528290 383.394470,279.101471 342.156525,278.362366 
	C342.679688,277.371368 343.055725,276.634186 343.578583,276.022522 
	C354.710144,263.000153 365.858185,249.991898 377.468536,237.038452 
	C388.058319,237.237259 398.182190,237.429489 408.306915,237.509537 
	C432.537689,237.701126 456.768951,237.839905 481.000000,238.000000 
	C481.000000,249.354233 481.000000,260.708466 481.000000,272.531342 
z"/>
<path fill="#D4D4CF" opacity="1.000000" stroke="none" 
	d="
M476.866760,196.163666 
	C477.579498,199.509094 478.245636,202.865494 479.029999,206.194031 
	C479.307220,207.370255 479.873169,208.478439 480.653656,209.308838 
	C481.000000,214.354935 481.000000,219.709854 480.555115,225.529785 
	C448.029449,225.405777 415.948730,224.816757 383.864380,223.807098 
	C385.569305,214.030029 387.277802,204.673599 389.414429,195.350403 
	C418.850616,195.643661 447.858704,195.903656 476.866760,196.163666 
z"/>
<path fill="#D4D5D0" opacity="1.000000" stroke="none" 
	d="
M4.001961,279.058289 
	C3.216148,276.479218 2.430333,273.900146 1.322259,271.660522 
	C1.000000,259.312439 1.000000,246.624878 1.413678,233.568954 
	C21.886980,233.475052 41.946602,233.749527 62.023167,234.478882 
	C62.682774,248.670319 63.325436,262.406891 63.504242,276.095520 
	C44.677113,275.843903 26.313047,275.688477 7.951422,275.385315 
	C5.142922,275.338989 3.423512,275.785400 4.001961,279.058289 
z"/>
<path fill="#D4D4CF" opacity="1.000000" stroke="none" 
	d="
M0.999999,210.458069 
	C1.665415,208.863312 2.658920,207.801697 2.939177,206.576874 
	C4.122031,201.407486 5.092338,196.189468 6.796350,191.395386 
	C26.304058,191.925491 45.155796,192.049454 63.997402,192.622467 
	C63.631763,202.494247 63.276260,211.916977 62.463928,221.255646 
	C45.623959,221.010483 29.241009,220.822357 12.857546,220.707779 
	C8.905904,220.680161 4.952560,220.896072 1.000000,221.000000 
	C1.000000,217.638718 1.000000,214.277420 0.999999,210.458069 
z"/>
<path fill="#3D5041" opacity="1.000000" stroke="none" 
	d="
M383.867981,224.227753 
	C415.948730,224.816757 448.029449,225.405777 480.555115,225.997406 
	C481.000000,229.692902 481.000000,233.385818 481.000000,237.539368 
	C456.768951,237.839905 432.537689,237.701126 408.306915,237.509537 
	C398.182190,237.429489 388.058319,237.237259 377.594604,236.717239 
	C379.459381,232.301544 381.663666,228.264648 383.867981,224.227753 
z"/>
<path fill="#3E5142" opacity="1.000000" stroke="none" 
	d="
M1.000000,221.460632 
	C4.952560,220.896072 8.905904,220.680161 12.857546,220.707779 
	C29.241009,220.822357 45.623959,221.010483 62.351059,221.641388 
	C62.465424,226.082138 62.235825,230.053055 62.006226,234.023987 
	C41.946602,233.749527 21.886980,233.475052 1.413678,233.100296 
	C1.000000,229.307098 1.000000,225.614182 1.000000,221.460632 
z"/>
<path fill="#A4B291" opacity="1.000000" stroke="none" 
	d="
M62.023167,234.478882 
	C62.235825,230.053055 62.465424,226.082138 62.807892,221.725464 
	C63.276260,211.916977 63.631763,202.494247 64.084175,192.214966 
	C64.451744,188.260147 64.722404,185.161880 65.020309,181.645889 
	C66.023354,172.837051 66.999153,164.445923 68.169098,155.735458 
	C68.877686,152.756042 69.392136,150.095947 69.906578,147.435867 
	C73.614578,122.372047 77.401726,96.954605 90.366386,74.929398 
	C105.687836,48.900356 129.576401,34.824135 160.309906,34.045559 
	C184.629471,33.429474 207.145050,40.789375 229.032104,50.540939 
	C244.070953,57.241356 259.437225,63.308723 274.044708,70.846024 
	C287.905701,77.998146 300.977356,86.682152 314.382446,94.715263 
	C331.826813,105.168877 348.569427,116.611816 362.672485,131.395966 
	C368.029602,137.011826 372.482819,143.489960 377.615082,150.132523 
	C379.507935,153.389908 381.133698,156.089859 382.787994,159.209259 
	C384.886627,168.154266 386.956696,176.679840 389.025421,185.652039 
	C389.011444,189.171509 388.998871,192.244324 388.986267,195.317154 
	C387.277802,204.673599 385.569305,214.030029 383.864380,223.807098 
	C381.663666,228.264648 379.459381,232.301544 377.129028,236.659668 
	C365.858185,249.991898 354.710144,263.000153 343.578583,276.022522 
	C343.055725,276.634186 342.679688,277.371368 341.830536,278.505829 
	C335.970978,283.909760 330.516174,288.858002 324.878937,294.094818 
	C311.945862,304.947205 299.205627,315.523529 286.438965,326.067993 
	C281.990814,329.741882 277.477509,333.336853 272.665070,337.091858 
	C267.212921,340.474365 262.040192,343.658325 256.979919,347.011932 
	C251.659500,350.537903 246.446686,354.226288 240.828629,357.948608 
	C232.342545,362.569397 224.233124,367.118835 216.083511,371.595093 
	C188.085968,386.973053 158.960236,399.425873 127.206505,404.555084 
	C120.877632,405.577423 114.213799,405.352234 107.793541,404.750885 
	C101.344177,404.146790 97.610435,399.150269 94.049194,394.157410 
	C85.790031,382.578094 81.775970,369.149170 76.973175,355.645233 
	C74.966011,348.501556 72.992210,341.749786 71.044617,334.566467 
	C70.853149,332.342133 70.673607,330.543762 70.411682,328.757446 
	C68.598267,316.390137 66.767708,304.025269 64.911972,291.243683 
	C64.576889,285.932953 64.272491,281.038208 63.968102,276.143433 
	C63.325436,262.406891 62.682774,248.670319 62.023167,234.478882 
M233.878799,332.412354 
	C256.543854,318.016937 277.926239,301.957825 297.885468,283.957245 
	C315.086456,268.444275 332.373779,252.999603 345.682343,233.871017 
	C360.851440,212.068268 362.927216,188.648895 352.118561,164.396439 
	C344.116791,146.442078 328.882812,135.009171 313.358154,124.394829 
	C282.763824,103.477226 250.320557,85.718674 215.638763,72.568970 
	C202.062881,67.421631 187.753494,63.029518 173.416489,61.311085 
	C142.236862,57.573902 111.985443,80.048225 103.032318,108.970375 
	C92.676758,142.422943 88.090157,176.824966 86.256538,211.547226 
	C85.190285,231.738327 86.386436,252.067413 86.976601,272.322418 
	C87.594772,293.539185 91.327263,314.364075 97.589706,334.579407 
	C100.962158,345.465759 105.863213,355.931152 110.711555,366.288269 
	C113.687248,372.644958 119.295654,376.325592 126.609825,374.942566 
	C139.136398,372.574036 151.842682,370.569611 163.968689,366.791931 
	C188.746429,359.072784 211.326370,346.505066 233.878799,332.412354 
z"/>
<path fill="#405344" opacity="1.000000" stroke="none" 
	d="
M382.759460,158.789825 
	C381.133698,156.089859 379.507935,153.389908 377.883728,150.323029 
	C406.273041,150.269989 434.660797,150.583878 463.478729,150.896973 
	C464.902832,153.380432 465.896759,155.864700 466.445862,158.700241 
	C463.677094,159.094086 461.352936,159.183014 459.029266,159.172180 
	C433.605957,159.053711 408.182709,158.919647 382.759460,158.789825 
z"/>
<path fill="#425547" opacity="1.000000" stroke="none" 
	d="
M69.447800,147.381653 
	C69.392136,150.095947 68.877686,152.756042 67.702164,155.720810 
	C52.105301,155.930801 37.169220,155.864075 22.234142,155.703796 
	C20.487411,155.685059 18.746223,155.150085 17.002464,154.854431 
	C17.782852,152.354095 18.563240,149.853745 19.663408,147.175049 
	C36.318470,147.106934 52.653748,147.217178 69.447800,147.381653 
z"/>
<path fill="#D4D4CF" opacity="1.000000" stroke="none" 
	d="
M16.660055,155.020676 
	C18.746223,155.150085 20.487411,155.685059 22.234142,155.703796 
	C37.169220,155.864075 52.105301,155.930801 67.508018,156.040146 
	C66.999153,164.445923 66.023354,172.837051 64.552780,181.618317 
	C54.781475,181.951538 45.503387,181.981079 36.228859,181.813538 
	C26.820589,181.643585 17.415833,181.279022 8.009537,180.999695 
	C10.778906,172.395432 13.548274,163.791183 16.660055,155.020676 
z"/>
<path fill="#3D5142" opacity="1.000000" stroke="none" 
	d="
M7.928153,181.387497 
	C17.415833,181.279022 26.820589,181.643585 36.228859,181.813538 
	C45.503387,181.981079 54.781475,181.951538 64.525528,182.036041 
	C64.722404,185.161880 64.451744,188.260147 64.094315,191.765930 
	C45.155796,192.049454 26.304058,191.925491 7.223035,191.434570 
	C7.278090,187.970169 7.562429,184.872742 7.928153,181.387497 
z"/>
<path fill="#D5D5D0" opacity="1.000000" stroke="none" 
	d="
M77.006546,356.037109 
	C81.775970,369.149170 85.790031,382.578094 94.049194,394.157410 
	C97.610435,399.150269 101.344177,404.146790 107.793541,404.750885 
	C114.213799,405.352234 120.877632,405.577423 127.206505,404.555084 
	C158.960236,399.425873 188.085968,386.973053 216.083511,371.595093 
	C224.233124,367.118835 232.342545,362.569397 241.284515,357.970306 
	C270.412811,358.155762 298.727264,358.400543 327.041138,358.698761 
	C368.007721,359.130249 408.973846,359.600494 449.940186,360.054199 
	C439.147949,379.705383 425.377686,397.083649 409.085510,412.738464 
	C406.521057,412.186646 404.464508,411.516235 402.400970,411.493927 
	C292.967194,410.313080 183.532913,409.180786 74.098015,408.111511 
	C72.415009,408.095093 70.723717,408.926208 69.036301,409.361786 
	C59.358120,397.259186 49.487926,385.302979 40.094185,372.983521 
	C36.219082,367.901520 33.367264,362.039276 30.321783,356.162506 
	C46.064537,355.874451 61.535542,355.955780 77.006546,356.037109 
z"/>
<path fill="#3D5041" opacity="1.000000" stroke="none" 
	d="
M69.135796,409.666809 
	C70.723717,408.926208 72.415009,408.095093 74.098015,408.111511 
	C183.532913,409.180786 292.967194,410.313080 402.400970,411.493927 
	C404.464508,411.516235 406.521057,412.186646 408.779236,412.898438 
	C403.023682,418.527374 397.142181,423.897491 391.088409,429.065735 
	C387.504150,432.125671 383.647736,434.866791 379.607056,437.855713 
	C350.197144,437.580719 321.094360,437.151184 291.990387,436.831970 
	C227.936417,436.129456 163.881851,435.482574 99.358353,434.899902 
	C89.004547,426.648438 79.119919,418.310120 69.135796,409.666809 
z"/>
<path fill="#D5D5D0" opacity="1.000000" stroke="none" 
	d="
M64.942657,291.659637 
	C66.767708,304.025269 68.598267,316.390137 70.411682,328.757446 
	C70.673607,330.543762 70.853149,332.342133 70.574554,334.593964 
	C64.940742,335.024384 59.802986,334.952454 54.665672,334.975922 
	C43.079121,335.028931 31.492786,335.129059 19.906363,335.210022 
	C16.269100,324.834839 12.527816,314.494354 9.047881,304.066650 
	C7.731426,300.121887 7.018244,295.975800 6.521825,291.478271 
	C26.323267,291.243256 45.632961,291.451447 64.942657,291.659637 
z"/>
<path fill="#3E5142" opacity="1.000000" stroke="none" 
	d="
M19.894630,335.568298 
	C31.492786,335.129059 43.079121,335.028931 54.665672,334.975922 
	C59.802986,334.952454 64.940742,335.024384 70.548355,335.025513 
	C72.992210,341.749786 74.966011,348.501556 76.973175,355.645264 
	C61.535542,355.955780 46.064537,355.874451 30.101429,355.860535 
	C26.367184,349.260834 23.125040,342.593689 19.894630,335.568298 
z"/>
<path fill="#3C5041" opacity="1.000000" stroke="none" 
	d="
M64.911972,291.243683 
	C45.632961,291.451447 26.323267,291.243256 6.551996,291.068726 
	C5.358862,287.366180 4.627304,283.629913 3.948852,279.475983 
	C3.423512,275.785400 5.142922,275.338989 7.951422,275.385315 
	C26.313047,275.688477 44.677113,275.843903 63.504242,276.095520 
	C64.272491,281.038208 64.576889,285.932953 64.911972,291.243683 
z"/>
<path fill="#D4D4CF" opacity="1.000000" stroke="none" 
	d="
M382.787994,159.209259 
	C408.182709,158.919647 433.605957,159.053711 459.029266,159.172180 
	C461.352936,159.183014 463.677094,159.094086 466.465088,159.063232 
	C469.615295,167.765030 472.301453,176.455093 474.514771,185.639557 
	C445.703552,185.824448 417.365173,185.514923 389.026794,185.205414 
	C386.956696,176.679840 384.886627,168.154266 382.787994,159.209259 
z"/>
<path fill="#3E5243" opacity="1.000000" stroke="none" 
	d="
M389.025421,185.652039 
	C417.365173,185.514923 445.703552,185.824448 474.500977,186.047729 
	C475.659149,189.089645 476.358246,192.217789 476.962036,195.754791 
	C447.858704,195.903656 418.850616,195.643661 389.414429,195.350403 
	C388.998871,192.244324 389.011444,189.171509 389.025421,185.652039 
z"/>
<path fill="#D5D5D0" opacity="1.000000" stroke="none" 
	d="
M272.993927,336.967834 
	C277.477509,333.336853 281.990814,329.741882 286.438965,326.067993 
	C299.205627,315.523529 311.945862,304.947205 325.334167,294.194244 
	C368.508362,294.435120 411.045166,294.841461 453.581146,295.318481 
	C460.710785,295.398468 467.836975,295.785034 474.964752,296.029907 
	C473.988647,300.026855 473.296112,304.119781 471.982056,308.002380 
	C468.369171,318.677307 464.495636,329.264038 460.090881,339.674011 
	C457.825073,339.280060 456.195160,338.954407 454.561859,338.936737 
	C425.297485,338.620361 396.032471,338.362762 366.768066,338.048187 
	C335.509766,337.712158 304.251953,337.329926 272.993927,336.967834 
z"/>
<path fill="#3D5141" opacity="1.000000" stroke="none" 
	d="
M272.665070,337.091827 
	C304.251953,337.329926 335.509766,337.712158 366.768066,338.048187 
	C396.032471,338.362762 425.297485,338.620361 454.561859,338.936737 
	C456.195160,338.954407 457.825073,339.280060 459.726929,339.797241 
	C456.764008,346.571320 453.530701,353.010529 450.118805,359.751953 
	C408.973846,359.600494 368.007721,359.130249 327.041138,358.698761 
	C298.727264,358.400543 270.412811,358.155762 241.642746,357.865387 
	C246.446686,354.226288 251.659500,350.537903 256.979919,347.011932 
	C262.040192,343.658325 267.212921,340.474365 272.665070,337.091827 
z"/>
<path fill="#3D5041" opacity="1.000000" stroke="none" 
	d="
M475.155090,295.687439 
	C467.836975,295.785034 460.710785,295.398468 453.581146,295.318481 
	C411.045166,294.841461 368.508362,294.435120 325.516602,293.905670 
	C330.516174,288.858002 335.970978,283.909760 341.751770,278.818085 
	C383.394470,279.101471 424.711182,279.528290 466.027893,279.955475 
	C469.692932,279.993378 473.358002,280.034424 477.483734,280.007141 
	C477.078094,285.075134 476.211731,290.210022 475.155090,295.687439 
z"/>
<path fill="#63835B" opacity="1.000000" stroke="none" 
	d="
M233.571243,332.605774 
	C211.326370,346.505066 188.746429,359.072784 163.968689,366.791931 
	C151.842682,370.569611 139.136398,372.574036 126.609825,374.942566 
	C119.295654,376.325592 113.687248,372.644958 110.711555,366.288269 
	C105.863213,355.931152 100.962158,345.465759 97.589706,334.579407 
	C91.327263,314.364075 87.594772,293.539185 86.976601,272.322418 
	C86.386436,252.067413 85.190285,231.738327 86.256538,211.547226 
	C88.090157,176.824966 92.676758,142.422943 103.032318,108.970375 
	C111.985443,80.048225 142.236862,57.573902 173.416489,61.311085 
	C187.753494,63.029518 202.062881,67.421631 215.638763,72.568970 
	C250.320557,85.718674 282.763824,103.477226 313.358154,124.394829 
	C328.882812,135.009171 344.116791,146.442078 352.118561,164.396439 
	C362.927216,188.648895 360.851440,212.068268 345.682343,233.871017 
	C332.373779,252.999603 315.086456,268.444275 297.885468,283.957245 
	C277.926239,301.957825 256.543854,318.016937 233.571243,332.605774 
M309.018585,144.997650 
	C309.018585,144.997650 309.068756,145.028885 308.204651,144.950470 
	C300.574432,146.543671 292.915131,148.010132 285.319855,149.755447 
	C267.341309,153.886703 249.372345,158.065033 231.451447,162.437241 
	C228.120407,163.249908 226.381760,162.581665 225.539703,159.291672 
	C225.212875,158.014694 224.521423,156.835266 224.057861,155.588409 
	C215.247482,131.891922 206.456741,108.188110 197.623627,84.500099 
	C196.911987,82.591690 195.922012,80.787064 194.420151,77.553673 
	C193.208374,80.275581 192.333282,81.492531 192.130173,82.812851 
	C190.011429,96.585976 188.069748,110.386391 185.940628,124.157852 
	C183.760391,138.259949 181.507797,152.352646 179.027176,166.403610 
	C178.789673,167.748856 176.787064,169.678360 175.472672,169.789841 
	C167.866089,170.435028 160.222534,170.690872 152.586929,170.937408 
	C139.127853,171.371948 125.662956,171.638046 112.207214,172.151077 
	C110.145088,172.229706 108.118896,173.251129 105.693207,174.327133 
	C106.576767,175.529129 107.230843,177.044540 108.378967,177.885193 
	C121.527824,187.512558 134.809082,196.959549 147.929672,206.624832 
	C153.772659,210.929077 159.332352,215.617874 164.921066,220.869537 
	C163.311844,225.758408 161.706848,230.648666 160.092712,235.535904 
	C148.936371,269.314911 137.714813,303.072571 126.664253,336.886139 
	C123.844009,345.515778 121.563484,354.321808 118.999840,363.002563 
	C118.999840,363.002563 119.056160,363.006805 118.722336,363.185150 
	C118.830391,363.481812 118.938438,363.778442 118.777916,364.694366 
	C117.922302,366.260590 117.066689,367.826813 116.211075,369.393036 
	C116.624397,369.700134 117.037720,370.007233 117.451050,370.314301 
	C118.483665,369.436157 119.690987,368.697510 120.521126,367.657715 
	C126.953011,359.601624 133.346375,351.514130 139.687622,343.386414 
	C164.338181,311.791382 188.986740,280.194641 213.553497,248.534500 
	C215.255386,246.341232 216.725006,245.620209 219.420883,246.669296 
	C228.879517,250.350113 238.416840,253.828888 247.927521,257.375732 
	C259.465057,261.678497 270.989166,266.018677 282.570679,270.199799 
	C283.744324,270.623505 285.272064,270.066284 286.635498,269.964294 
	C286.085052,268.758881 285.534576,267.553497 284.953217,265.573547 
	C284.018555,263.635132 283.231262,261.608032 282.126343,259.772064 
	C271.407349,241.961075 260.635040,224.182114 250.455948,205.962189 
	C272.829132,185.643494 295.202362,165.324799 317.575562,145.006104 
	C317.126984,144.277740 316.678406,143.549393 316.229858,142.821030 
	C314.150635,143.540375 312.071442,144.259705 309.763916,144.721695 
	C309.511017,144.832840 309.258118,144.943985 309.018585,144.997650 
z"/>
<path fill="#3B503F" opacity="1.000000" stroke="none" 
	d="
M106.076088,173.836517 
	C108.118896,173.251129 110.145088,172.229706 112.207214,172.151077 
	C125.662956,171.638046 139.127853,171.371948 152.586929,170.937408 
	C160.222534,170.690872 167.866089,170.435028 175.472672,169.789841 
	C176.787064,169.678360 178.789673,167.748856 179.027176,166.403610 
	C181.507797,152.352646 183.760391,138.259949 185.940628,124.157852 
	C188.069748,110.386391 190.011429,96.585976 192.130173,82.812851 
	C192.333282,81.492531 193.208374,80.275581 194.420151,77.553673 
	C195.922012,80.787064 196.911987,82.591690 197.623627,84.500099 
	C206.456741,108.188110 215.247482,131.891922 224.057861,155.588409 
	C224.521423,156.835266 225.212875,158.014694 225.539703,159.291672 
	C226.381760,162.581665 228.120407,163.249908 231.451447,162.437241 
	C249.372345,158.065033 267.341309,153.886703 285.319855,149.755447 
	C292.915131,148.010132 300.574432,146.543671 308.565277,145.322968 
	C306.310303,148.140671 303.694672,150.585907 300.643890,153.020752 
	C298.251617,153.248169 296.239685,153.272491 294.346222,153.758362 
	C281.869843,156.959686 269.398499,160.184967 256.966156,163.552490 
	C246.946213,166.266586 236.983444,169.191666 226.660370,171.961899 
	C224.555450,170.888519 222.785446,169.876389 220.996857,168.487152 
	C220.579697,166.670364 220.309418,165.179916 219.763031,163.798706 
	C213.158051,147.102020 206.522141,130.417557 199.867554,113.740578 
	C198.750076,110.940094 197.505814,108.190193 195.886490,104.402603 
	C194.944717,106.656303 194.291733,107.650742 194.118652,108.722679 
	C192.691956,117.558266 191.408035,126.416946 189.976364,135.251694 
	C188.094208,146.866302 186.329224,158.508499 183.995865,170.033951 
	C183.546448,172.253769 181.060272,174.804565 178.883896,175.744568 
	C176.120544,176.938080 172.722321,176.829895 169.584427,176.960312 
	C151.335846,177.718811 133.083313,178.382614 114.513672,178.969482 
	C111.488846,177.185883 108.782463,175.511200 106.076088,173.836517 
z"/>
<path fill="#9EAD8C" opacity="1.000000" stroke="none" 
	d="
M284.984131,266.348083 
	C285.534576,267.553497 286.085052,268.758881 286.635498,269.964294 
	C285.272064,270.066284 283.744324,270.623505 282.570679,270.199799 
	C270.989166,266.018677 259.465057,261.678497 247.927521,257.375732 
	C238.416840,253.828888 228.879517,250.350113 219.420883,246.669296 
	C216.725006,245.620209 215.255386,246.341232 213.553497,248.534500 
	C188.986740,280.194641 164.338181,311.791382 139.687622,343.386414 
	C133.346375,351.514130 126.953011,359.601624 120.521126,367.657715 
	C119.690987,368.697510 118.483665,369.436157 117.451050,370.314301 
	C117.037720,370.007233 116.624397,369.700134 116.211075,369.393036 
	C117.066689,367.826813 117.922302,366.260590 118.977310,364.118073 
	C119.136520,363.363464 119.096344,363.185120 119.056160,363.006805 
	C119.056160,363.006805 118.999840,363.002563 119.344193,362.948669 
	C121.138397,360.961426 122.588234,359.028137 124.321144,356.911621 
	C142.736481,332.872833 160.868393,309.016937 179.001175,285.161682 
	C188.974258,272.041229 198.922607,258.901855 208.934219,245.810822 
	C213.653214,239.640289 214.616470,239.377762 221.908722,242.142014 
	C239.956696,248.983398 257.983948,255.879456 276.332031,262.946045 
	C279.424438,264.208405 282.204285,265.278259 284.984131,266.348083 
z"/>
<path fill="#3B503F" opacity="1.000000" stroke="none" 
	d="
M124.038078,357.094818 
	C122.588234,359.028137 121.138397,360.961426 119.361771,362.970764 
	C121.563484,354.321808 123.844009,345.515778 126.664253,336.886139 
	C137.714813,303.072571 148.936371,269.314911 160.092712,235.535904 
	C161.706848,230.648666 163.311844,225.758408 165.397369,220.502228 
	C167.583038,220.098450 169.292404,220.061951 171.051758,220.313080 
	C171.653442,221.072510 172.205124,221.544312 172.850815,222.310059 
	C173.016373,223.008469 173.087936,223.412949 173.118561,224.110535 
	C173.069931,224.600830 173.062241,224.798004 172.707611,225.081512 
	C171.863510,225.787674 171.164902,226.331894 170.899521,227.038757 
	C167.283844,236.669785 163.708359,246.316086 160.161453,255.972748 
	C150.607986,281.982574 141.009644,307.976227 131.570160,334.027374 
	C128.815994,341.628326 126.535622,349.400909 124.038078,357.094818 
z"/>
<path fill="#3B503F" opacity="1.000000" stroke="none" 
	d="
M284.968689,265.960815 
	C282.204285,265.278259 279.424438,264.208405 276.312866,262.598694 
	C275.612152,261.153229 275.365509,260.171417 274.855957,259.353394 
	C266.182343,245.428955 257.296173,231.631851 248.913620,217.535080 
	C247.004181,214.324036 242.895584,210.809311 247.082703,206.159546 
	C248.281921,206.228134 249.079971,206.311066 249.878006,206.393997 
	C260.635040,224.182114 271.407349,241.961075 282.126343,259.772064 
	C283.231262,261.608032 284.018555,263.635132 284.968689,265.960815 
z"/>
<path fill="#9EAC8C" opacity="1.000000" stroke="none" 
	d="
M250.166977,206.178101 
	C249.079971,206.311066 248.281921,206.228134 247.120056,205.785980 
	C251.520691,200.621902 256.183197,195.710541 261.069214,191.032700 
	C274.355255,178.312683 287.735931,165.691498 301.079041,153.031143 
	C303.694672,150.585907 306.310303,148.140671 308.997314,145.362167 
	C309.068756,145.028885 309.018585,144.997650 309.263916,145.073517 
	C309.670258,145.092590 309.831268,145.035828 309.992249,144.979050 
	C312.071442,144.259705 314.150635,143.540375 316.229858,142.821030 
	C316.678406,143.549393 317.126984,144.277740 317.575562,145.006104 
	C295.202362,165.324799 272.829132,185.643494 250.166977,206.178101 
z"/>
<path fill="#9BAA8A" opacity="1.000000" stroke="none" 
	d="
M171.001770,220.025467 
	C169.292404,220.061951 167.583038,220.098450 165.447144,220.133545 
	C159.332352,215.617874 153.772659,210.929077 147.929672,206.624832 
	C134.809082,196.959549 121.527824,187.512558 108.378967,177.885193 
	C107.230843,177.044540 106.576767,175.529129 105.884644,174.081818 
	C108.782463,175.511200 111.488846,177.185883 114.722504,179.240112 
	C132.579590,191.580093 149.932556,203.507355 167.199753,215.557495 
	C168.750977,216.640030 169.747589,218.517288 171.001770,220.025467 
z"/>
<path fill="#3B503F" opacity="1.000000" stroke="none" 
	d="
M309.878082,144.850372 
	C309.831268,145.035828 309.670258,145.092590 309.257233,145.102264 
	C309.258118,144.943985 309.511017,144.832840 309.878082,144.850372 
z"/>
<path fill="#3B503F" opacity="1.000000" stroke="none" 
	d="
M118.889252,363.095978 
	C119.096344,363.185120 119.136520,363.363464 119.111603,363.808441 
	C118.938438,363.778442 118.830391,363.481812 118.889252,363.095978 
z"/>
<path fill="#425A3C" opacity="1.000000" stroke="none" 
	d="
M300.643921,153.020752 
	C287.735931,165.691498 274.355255,178.312683 261.069214,191.032700 
	C256.183197,195.710541 251.520691,200.621902 246.718872,205.800308 
	C242.895584,210.809311 247.004181,214.324036 248.913620,217.535080 
	C257.296173,231.631851 266.182343,245.428955 274.855957,259.353394 
	C275.365509,260.171417 275.612152,261.153229 276.000305,262.406189 
	C257.983948,255.879456 239.956696,248.983398 221.908722,242.142014 
	C214.616470,239.377762 213.653214,239.640289 208.934219,245.810822 
	C198.922607,258.901855 188.974258,272.041229 179.001175,285.161682 
	C160.868393,309.016937 142.736481,332.872833 124.321144,356.911621 
	C126.535622,349.400909 128.815994,341.628326 131.570160,334.027374 
	C141.009644,307.976227 150.607986,281.982574 160.161453,255.972748 
	C163.708359,246.316086 167.283844,236.669785 170.899521,227.038757 
	C171.164902,226.331894 171.863510,225.787674 172.906097,225.205505 
	C173.698196,225.449463 173.874237,225.704544 173.753815,226.244659 
	C174.193802,227.757935 174.525787,229.581207 175.578766,230.224686 
	C183.311462,234.950363 191.085983,239.629700 199.057800,243.933792 
	C203.943878,246.571854 206.551636,244.675034 206.987732,238.457367 
	C207.904083,234.730301 205.710724,233.418091 203.266174,232.107971 
	C197.800751,229.178879 192.399246,226.130508 187.024292,222.767014 
	C189.291046,218.126297 191.713898,213.941422 193.655365,209.544022 
	C195.297424,205.824799 197.431366,205.446213 200.709152,207.320999 
	C204.895615,209.715500 209.111877,212.087067 213.466232,214.149979 
	C217.229767,215.932999 218.891815,214.809174 219.080933,210.653885 
	C219.159485,208.919235 219.094620,207.484909 218.918320,205.812347 
	C218.533920,205.367294 218.260971,205.160492 217.988800,204.984650 
	C217.989578,205.015625 218.051071,205.008148 217.967072,204.755234 
	C217.588684,204.321213 217.294296,204.140121 217.002335,203.983490 
	C217.004776,204.007950 217.044022,203.978317 216.917603,203.662140 
	C212.174301,200.323013 207.557434,197.300049 202.963776,193.884308 
	C205.432571,188.342392 207.878159,183.193237 210.524841,177.620682 
	C216.843430,181.232971 222.298691,184.361969 227.763992,187.473312 
	C233.240692,190.591171 235.763031,189.375427 237.042389,182.852280 
	C237.073425,182.666260 237.117249,182.291626 237.337784,182.053665 
	C236.716263,180.861877 235.874207,179.908051 235.037933,178.971863 
	C235.043732,178.989471 235.074341,178.952393 235.123352,178.596344 
	C232.446686,176.167923 229.720993,174.095535 226.995300,172.023148 
	C236.983444,169.191666 246.946213,166.266586 256.966156,163.552490 
	C269.398499,160.184967 281.869843,156.959686 294.346222,153.758362 
	C296.239685,153.272491 298.251617,153.248169 300.643921,153.020752 
z"/>
<path fill="#425A3C" opacity="1.000000" stroke="none" 
	d="
M171.051758,220.313080 
	C169.747589,218.517288 168.750977,216.640030 167.199753,215.557495 
	C149.932556,203.507355 132.579590,191.580093 115.040955,179.349045 
	C133.083313,178.382614 151.335846,177.718811 169.584427,176.960312 
	C172.722321,176.829895 176.120544,176.938080 178.883896,175.744568 
	C181.060272,174.804565 183.546448,172.253769 183.995865,170.033951 
	C186.329224,158.508499 188.094208,146.866302 189.976364,135.251694 
	C191.408035,126.416946 192.691956,117.558266 194.118652,108.722679 
	C194.291733,107.650742 194.944717,106.656303 195.886490,104.402603 
	C197.505814,108.190193 198.750076,110.940094 199.867554,113.740578 
	C206.522141,130.417557 213.158051,147.102020 219.763031,163.798706 
	C220.309418,165.179916 220.579697,166.670364 220.658905,168.408478 
	C217.121750,167.018982 213.937729,165.262115 210.676407,163.662949 
	C207.559937,162.134842 204.854095,162.642273 203.065765,165.829117 
	C199.677353,171.867294 196.354675,177.942322 192.763519,184.237793 
	C186.709305,194.669815 180.828049,204.828262 175.139603,215.093567 
	C173.974716,217.195694 173.532272,219.698166 172.756821,222.016113 
	C172.205124,221.544312 171.653442,221.072510 171.051758,220.313080 
z"/>
<path fill="#92A383" opacity="1.000000" stroke="none" 
	d="
M193.004684,184.002045 
	C196.354675,177.942322 199.677353,171.867294 203.065765,165.829117 
	C204.854095,162.642273 207.559937,162.134842 210.676407,163.662949 
	C213.937729,165.262115 217.121750,167.018982 220.677490,168.785583 
	C222.785446,169.876389 224.555450,170.888519 226.660370,171.961899 
	C229.720993,174.095535 232.446686,176.167923 234.764404,178.571350 
	C227.438477,175.018127 220.585739,171.011124 213.581131,167.289993 
	C208.349258,164.510590 205.441528,165.593597 202.587708,170.645279 
	C199.832321,175.522705 196.953354,180.330292 193.980743,184.937180 
	C193.556763,184.471222 193.280716,184.236633 193.004684,184.002045 
z"/>
<path fill="#63835B" opacity="1.000000" stroke="none" 
	d="
M194.128662,185.168549 
	C196.953354,180.330292 199.832321,175.522705 202.587708,170.645279 
	C205.441528,165.593597 208.349258,164.510590 213.581131,167.289993 
	C220.585739,171.011124 227.438477,175.018127 234.715393,178.927399 
	C235.074341,178.952393 235.043732,178.989471 235.056305,179.314743 
	C235.751663,180.523880 236.434448,181.407761 237.117249,182.291626 
	C237.117249,182.291626 237.073425,182.666260 236.707138,182.904816 
	C233.600357,186.012070 230.812714,185.853790 227.511139,183.832397 
	C221.753922,180.307541 215.787476,177.124435 209.066544,173.321579 
	C205.765060,180.380875 202.777649,186.768616 199.523605,193.204926 
	C199.060623,193.627518 198.864273,194.001526 198.667923,194.375519 
	C204.793289,197.576462 210.918655,200.777390 217.044022,203.978317 
	C217.044022,203.978317 217.004776,204.007950 217.099991,204.225128 
	C217.480499,204.630936 217.765778,204.819534 218.051071,205.008148 
	C218.051071,205.008148 217.989578,205.015625 218.110886,205.211243 
	C218.498047,205.621460 218.763901,205.836029 219.029770,206.050598 
	C219.094620,207.484909 219.159485,208.919235 218.745239,210.825851 
	C216.069351,211.150879 213.598526,211.599442 211.729263,210.739899 
	C206.932388,208.534073 202.463074,205.625153 197.722137,203.281876 
	C196.584183,202.719421 193.940109,202.758957 193.612717,203.379059 
	C190.245773,209.756256 187.213120,216.309937 183.974152,223.055023 
	C189.145813,226.315353 194.577271,229.112091 199.652161,232.450836 
	C202.112030,234.069183 203.903397,236.703659 205.832489,239.177643 
	C203.949463,240.055527 201.696686,241.638550 200.597656,241.053650 
	C191.603394,236.267044 182.824173,231.076340 173.979630,226.008408 
	C173.874237,225.704544 173.698196,225.449463 173.253021,225.119171 
	C173.062241,224.798004 173.069931,224.600830 173.398163,223.955597 
	C180.522018,210.727844 187.325333,197.948196 194.128662,185.168549 
z"/>
<path fill="#98A887" opacity="1.000000" stroke="none" 
	d="
M193.980713,184.937180 
	C187.325333,197.948196 180.522018,210.727844 173.439087,223.662460 
	C173.087936,223.412949 173.016373,223.008469 172.850815,222.310059 
	C173.532272,219.698166 173.974716,217.195694 175.139603,215.093567 
	C180.828049,204.828262 186.709305,194.669815 192.763519,184.237793 
	C193.280716,184.236633 193.556763,184.471222 193.980713,184.937180 
z"/>
<path fill="#3C5240" opacity="1.000000" stroke="none" 
	d="
M199.790222,193.156342 
	C202.777649,186.768616 205.765060,180.380875 209.066544,173.321579 
	C215.787476,177.124435 221.753922,180.307541 227.511139,183.832397 
	C230.812714,185.853790 233.600357,186.012070 236.676086,183.090836 
	C235.763031,189.375427 233.240692,190.591171 227.763992,187.473312 
	C222.298691,184.361969 216.843430,181.232971 210.524841,177.620682 
	C207.878159,183.193237 205.432571,188.342392 202.629150,193.813110 
	C201.444260,193.808578 200.617249,193.482452 199.790222,193.156342 
z"/>
<path fill="#3D5240" opacity="1.000000" stroke="none" 
	d="
M184.087250,222.814407 
	C187.213120,216.309937 190.245773,209.756256 193.612717,203.379059 
	C193.940109,202.758957 196.584183,202.719421 197.722137,203.281876 
	C202.463074,205.625153 206.932388,208.534073 211.729263,210.739899 
	C213.598526,211.599442 216.069351,211.150879 218.601837,211.126190 
	C218.891815,214.809174 217.229767,215.932999 213.466232,214.149979 
	C209.111877,212.087067 204.895615,209.715500 200.709152,207.320999 
	C197.431366,205.446213 195.297424,205.824799 193.655365,209.544022 
	C191.713898,213.941422 189.291046,218.126297 186.662338,222.741348 
	C185.527618,222.991058 184.807434,222.902740 184.087250,222.814407 
z"/>
<path fill="#3C523F" opacity="1.000000" stroke="none" 
	d="
M173.753815,226.244659 
	C182.824173,231.076340 191.603394,236.267044 200.597656,241.053650 
	C201.696686,241.638550 203.949463,240.055527 206.070160,239.188782 
	C206.472778,238.900391 206.945770,238.849319 206.945770,238.849319 
	C206.551636,244.675034 203.943878,246.571854 199.057800,243.933792 
	C191.085983,239.629700 183.311462,234.950363 175.578766,230.224686 
	C174.525787,229.581207 174.193802,227.757935 173.753815,226.244659 
z"/>
<path fill="#8A9C7C" opacity="1.000000" stroke="none" 
	d="
M206.987732,238.457367 
	C206.945770,238.849319 206.472778,238.900391 206.235107,238.889236 
	C203.903397,236.703659 202.112030,234.069183 199.652161,232.450836 
	C194.577271,229.112091 189.145813,226.315353 183.974152,223.055023 
	C184.807434,222.902740 185.527618,222.991058 186.609756,223.105057 
	C192.399246,226.130508 197.800751,229.178879 203.266174,232.107971 
	C205.710724,233.418091 207.904083,234.730301 206.987732,238.457367 
z"/>
<path fill="#94A484" opacity="1.000000" stroke="none" 
	d="
M199.523590,193.204926 
	C200.617249,193.482452 201.444260,193.808578 202.605927,194.205902 
	C207.557434,197.300049 212.174301,200.323013 216.917603,203.662140 
	C210.918655,200.777390 204.793289,197.576462 198.667923,194.375519 
	C198.864273,194.001526 199.060623,193.627518 199.523590,193.204926 
z"/>
<path fill="#92A383" opacity="1.000000" stroke="none" 
	d="
M237.337784,182.053665 
	C236.434448,181.407761 235.751663,180.523880 235.050507,179.297119 
	C235.874207,179.908051 236.716263,180.861877 237.337784,182.053665 
z"/>
<path fill="#94A484" opacity="1.000000" stroke="none" 
	d="
M217.967072,204.755234 
	C217.765778,204.819534 217.480499,204.630936 217.097549,204.200684 
	C217.294296,204.140121 217.588684,204.321213 217.967072,204.755234 
z"/>
<path fill="#94A484" opacity="1.000000" stroke="none" 
	d="
M218.918320,205.812347 
	C218.763901,205.836029 218.498047,205.621460 218.110107,205.180283 
	C218.260971,205.160492 218.533920,205.367294 218.918320,205.812347 
z"/>
</svg>